<svg width="194" height="280" viewBox="0 0 194 280" fill="none" xmlns="http://www.w3.org/2000/svg">
<rect width="194" height="280" rx="40" fill="#316C5F"/>
<path d="M136.607 219.342C127.054 228.933 112.679 234.467 97.5 234.467C68.75 234.467 45.3571 214.086 45.3571 189.094C45.3571 159.398 63.4821 143.721 97.5 143.721C134.196 143.721 149.643 153.865 149.643 178.119V200.621C108.125 200.345 95.8929 191.03 95.8929 161.888V120.112C95.8929 90.9697 108.393 81.6553 149.643 81.3787V98.4397C149.643 127.582 135.804 138.279 97.5 138.279C63.125 138.279 45.3571 122.602 45.3571 92.9064C45.3571 68.0987 68.75 47.5333 97.5 47.5333C112.411 47.5333 127.054 53.3433 136.607 62.9343L140.357 59.061C129.732 48.3633 114.018 42 97.5 42C66.0714 42 40 64.7788 40 92.9064C40 125.922 60.2679 143.813 97.5 143.813C138.482 143.813 155 130.902 155 98.4397V75.8454C106.786 75.5687 90.5357 85.9898 90.5357 120.112V161.888C90.5357 196.01 106.786 206.431 155 206.155V178.119C155 150.361 136.875 138.279 97.5 138.279C60.5357 138.279 40 156.355 40 189.094C40 217.129 65.8036 240 97.5 240C114.018 240 129.732 233.913 140.357 223.216L136.607 219.342Z" fill="white"/>
</svg>
