<svg width="601" height="224" viewBox="0 0 601 224" fill="none" xmlns="http://www.w3.org/2000/svg">
<path d="M96.6071 195.342C87.0536 204.933 72.6786 210.467 57.5 210.467C28.75 210.467 5.35714 190.086 5.35714 165.094C5.35714 135.398 23.4821 119.721 57.5 119.721C94.1964 119.721 109.643 129.865 109.643 154.119V176.621C68.125 176.345 55.8929 167.03 55.8929 137.888V96.1118C55.8929 66.9697 68.3929 57.6553 109.643 57.3787V74.4397C109.643 103.582 95.8036 114.279 57.5 114.279C23.125 114.279 5.35714 98.6018 5.35714 68.9064C5.35714 44.0987 28.75 23.5333 57.5 23.5333C72.4107 23.5333 87.0536 29.3433 96.6071 38.9343L100.357 35.061C89.7321 24.3633 74.0179 18 57.5 18C26.0714 18 0 40.7788 0 68.9064C0 101.922 20.2679 119.813 57.5 119.813C98.4821 119.813 115 106.902 115 74.4397V51.8454C66.7857 51.5687 50.5357 61.9898 50.5357 96.1118V137.888C50.5357 172.01 66.7857 182.431 115 182.155V154.119C115 126.361 96.875 114.279 57.5 114.279C20.5357 114.279 0 132.355 0 165.094C0 193.129 25.8036 216 57.5 216C74.0179 216 89.7321 209.913 100.357 199.216L96.6071 195.342Z" fill="black"/>
<path d="M200.15 81.406C197.344 93.606 191.61 99.584 181.728 99.584H161.354C156.84 99.584 154.888 97.51 154.888 91.898V62.862H172.334C181.118 62.862 182.338 66.644 182.582 74.33H184.29V48.1H182.582C182.338 55.908 181.118 59.446 172.334 59.446H154.888V24.92H180.264C190.146 24.92 195.88 30.898 198.686 42.976H200.394L197.1 21.504H135.002V23.212C142.322 23.578 146.104 24.92 146.104 32.484V91.898C146.104 99.706 142.322 100.926 135.002 101.292V103H198.564L201.858 81.406H200.15ZM220.453 31.264C223.991 31.264 226.675 28.58 226.675 25.042C226.675 21.504 223.991 18.698 220.453 18.698C216.671 18.698 213.743 21.504 213.743 25.042C213.743 28.58 216.671 31.264 220.453 31.264ZM225.211 94.094V40.17H223.503L207.887 44.562V46.27H211.059C215.573 46.514 217.403 48.344 217.403 52.614V94.094C217.403 99.584 213.133 100.56 208.741 101.292V103H233.751V101.292C229.481 100.56 225.211 99.584 225.211 94.094ZM275.397 95.07L256.121 93.85C249.777 93.484 247.581 89.58 247.581 86.896C247.581 84.456 249.045 81.528 251.729 79.332C255.511 81.284 259.903 82.26 264.661 82.26C278.935 82.26 288.695 73.598 288.695 61.398C288.695 54.81 285.889 49.32 281.131 45.538H293.697V42.122H275.153C271.981 40.902 268.443 40.292 264.661 40.292C250.387 40.292 240.749 49.076 240.749 61.398C240.749 68.962 244.409 74.94 250.265 78.478C245.141 81.406 242.457 85.92 242.457 90.434C242.457 93.728 244.043 97.144 248.435 99.218C243.433 101.17 236.967 105.806 236.967 114.224C236.967 122.886 247.093 128.864 262.465 128.864C281.131 128.864 294.063 121.788 294.063 109.954C294.063 99.706 286.255 95.802 275.397 95.07ZM263.807 43.83C273.445 43.83 280.033 51.882 280.033 63.228C280.033 72.378 274.177 78.844 265.515 78.844C255.999 78.844 249.289 70.914 249.289 59.568C249.289 50.174 255.267 43.83 263.807 43.83ZM265.393 125.692C253.071 125.692 244.287 119.836 244.287 110.808C244.287 105.196 248.069 102.024 250.509 99.95C251.973 100.438 253.681 100.804 255.755 100.926L274.543 102.146C285.279 103 288.329 107.636 288.329 112.882C288.329 120.568 278.203 125.692 265.393 125.692ZM353.636 94.094V58.47C353.636 46.758 347.414 40.292 336.922 40.292C328.504 40.292 322.038 45.05 315.206 54.2V17.112H313.498L297.882 21.504V23.212L301.176 23.334C305.568 23.456 307.398 25.286 307.398 29.556V94.094C307.398 99.584 303.128 100.56 298.736 101.292V103H323.868V101.292C319.476 100.56 315.206 99.584 315.206 94.094V57.128C321.916 49.32 327.406 46.148 333.872 46.148C341.314 46.148 345.828 50.906 345.828 58.958V94.094C345.828 99.584 341.558 100.56 337.166 101.292V103H362.176V101.292C357.906 100.56 353.636 99.584 353.636 94.094ZM397.097 45.538V42.122H378.797V29.556H377.089L364.279 43.83V45.538H370.867V88.97C370.867 99.096 375.991 104.83 384.409 104.83C392.095 104.83 395.877 100.072 397.097 96.778L396.243 96.29C394.657 97.876 392.827 99.706 388.313 99.706C382.091 99.706 378.797 95.68 378.797 88.726V45.538H397.097ZM135.002 215H173.798C191.732 215 202.59 206.704 202.59 193.162C202.59 182.06 193.196 173.886 177.458 172.178C189.658 170.104 196.856 162.784 196.856 152.78C196.856 140.702 186.12 133.504 168.308 133.504H135.002V135.212C142.322 135.578 146.104 136.92 146.104 144.484V203.898C146.104 211.706 142.322 212.926 135.002 213.292V215ZM154.888 170.958V136.92H166.112C179.288 136.92 187.218 142.898 187.218 152.902C187.218 164.248 180.264 170.958 168.674 170.958H154.888ZM165.746 211.584C157.572 211.584 154.888 208.778 154.888 203.654V174.374H168.796C184.046 174.374 192.83 181.694 192.83 193.162C192.83 204.386 184.9 211.584 172.334 211.584H165.746ZM242.532 152.292C235.822 152.292 229.722 157.782 225.33 168.762V152.292H223.622L208.006 156.684V158.392H211.178C215.692 158.636 217.522 160.466 217.522 164.736V205.85C217.522 211.462 213.13 212.56 208.372 213.292V215H237.652V213.292C229.6 212.56 225.33 211.462 225.33 205.85V172.3C229.234 164.126 235.09 159.978 241.068 159.978C243.142 159.978 245.094 160.344 246.802 161.32L247.412 153.39C245.704 152.658 244.118 152.292 242.532 152.292ZM300.777 210.608C296.385 210.486 294.433 208.778 294.433 204.386V174.13C294.433 160.71 286.259 152.292 273.449 152.292C257.223 152.292 246.243 164.858 252.587 177.18L260.395 174.252C256.247 165.346 261.493 155.708 271.375 155.708C280.891 155.708 286.625 162.662 286.625 174.13V178.034L276.133 180.108C257.345 183.646 250.147 189.258 250.147 200.97C250.147 210.364 256.613 216.83 266.007 216.83C275.035 216.83 282.965 210.73 286.625 200.726V216.83H288.333L303.949 212.438V210.73L300.777 210.608ZM286.625 197.554C283.087 205.484 276.621 210.852 269.789 210.852C263.079 210.852 258.443 205.606 258.443 198.652C258.443 190.356 263.933 185.964 276.499 183.524L286.625 181.45V197.554ZM362.361 206.094V170.47C362.361 158.758 356.139 152.292 345.769 152.292C337.107 152.292 330.641 157.294 323.687 166.688V152.292H321.979L306.363 156.684V158.392H309.535C314.049 158.636 315.879 160.466 315.879 164.736V206.094C315.879 211.584 311.609 212.56 307.217 213.292V215H332.227V213.292C327.957 212.56 323.687 211.584 323.687 206.094V169.494C330.641 161.32 336.009 158.148 342.719 158.148C350.039 158.148 354.553 162.906 354.553 170.958V206.094C354.553 211.584 350.283 212.56 346.013 213.292V215H371.023V213.292C366.631 212.56 362.361 211.584 362.361 206.094ZM400.22 216.708C412.054 216.708 420.35 209.266 423.888 197.432L422.424 196.944C417.788 205.118 410.956 209.144 403.514 209.144C389.728 209.144 381.31 196.944 381.31 180.596C381.31 166.2 388.874 155.708 399.976 155.708C408.76 155.708 412.786 163.394 414.128 169.494L422.058 166.688C420.838 159.856 413.03 152.292 401.562 152.292C384.238 152.292 373.136 166.444 373.136 185.476C373.136 203.166 384.238 216.708 400.22 216.708ZM481.421 206.094V170.47C481.421 158.758 475.199 152.292 464.707 152.292C456.289 152.292 449.823 157.05 442.991 166.2V129.112H441.283L425.667 133.504V135.212L428.961 135.334C433.353 135.456 435.183 137.286 435.183 141.556V206.094C435.183 211.584 430.913 212.56 426.521 213.292V215H451.653V213.292C447.261 212.56 442.991 211.584 442.991 206.094V169.128C449.701 161.32 455.191 158.148 461.657 158.148C469.099 158.148 473.613 162.906 473.613 170.958V206.094C473.613 211.584 469.343 212.56 464.951 213.292V215H489.961V213.292C485.691 212.56 481.421 211.584 481.421 206.094ZM541.634 198.652C538.096 204.02 532.606 209.266 523.456 209.266C509.426 209.266 499.91 198.53 500.398 181.816C500.398 180.84 500.52 179.986 500.52 179.01H542.854C542.854 163.516 534.436 152.292 520.406 152.292C503.692 152.292 492.224 165.956 492.224 185.842C492.224 203.532 502.716 216.708 519.186 216.708C530.776 216.708 539.926 209.266 542.976 199.262L541.634 198.652ZM518.698 155.708C527.848 155.708 533.582 165.102 533.826 175.594H501.008C502.96 163.882 509.548 155.708 518.698 155.708ZM573.697 216.708C586.263 216.708 594.925 209.022 594.681 197.92C594.071 176.204 558.813 182.548 558.813 166.2C558.813 160.1 563.937 155.708 571.745 155.708C578.211 155.708 583.945 160.588 586.263 167.664L593.461 164.248C590.777 157.05 582.115 152.292 572.233 152.292C560.033 152.292 551.859 159.124 552.103 169.372C552.469 190.234 587.605 183.402 587.849 201.58C587.849 208.534 582.237 213.292 574.063 213.292C566.499 213.292 559.911 207.68 558.203 199.018L550.273 202.556C553.689 210.974 563.205 216.708 573.697 216.708Z" fill="black"/>
</svg>
