<svg width="471" height="313" viewBox="0 0 471 313" fill="none" xmlns="http://www.w3.org/2000/svg">
<path d="M70.15 138.406C67.344 150.606 61.61 156.584 51.728 156.584H31.354C26.84 156.584 24.888 154.51 24.888 148.898V119.862H42.334C51.118 119.862 52.338 123.644 52.582 131.33H54.29V105.1H52.582C52.338 112.908 51.118 116.446 42.334 116.446H24.888V81.92H50.264C60.146 81.92 65.88 87.898 68.686 99.976H70.394L67.1 78.504H5.002V80.212C12.322 80.578 16.104 81.92 16.104 89.484V148.898C16.104 156.706 12.322 157.926 5.002 158.292V160H68.564L71.858 138.406H70.15ZM90.4525 88.264C93.9905 88.264 96.6745 85.58 96.6745 82.042C96.6745 78.504 93.9905 75.698 90.4525 75.698C86.6705 75.698 83.7425 78.504 83.7425 82.042C83.7425 85.58 86.6705 88.264 90.4525 88.264ZM95.2105 151.094V97.17H93.5025L77.8865 101.562V103.27H81.0585C85.5725 103.514 87.4025 105.344 87.4025 109.614V151.094C87.4025 156.584 83.1325 157.56 78.7405 158.292V160H103.751V158.292C99.4805 157.56 95.2105 156.584 95.2105 151.094ZM145.397 152.07L126.121 150.85C119.777 150.484 117.581 146.58 117.581 143.896C117.581 141.456 119.045 138.528 121.729 136.332C125.511 138.284 129.903 139.26 134.661 139.26C148.935 139.26 158.695 130.598 158.695 118.398C158.695 111.81 155.889 106.32 151.131 102.538H163.697V99.122H145.153C141.981 97.902 138.443 97.292 134.661 97.292C120.387 97.292 110.749 106.076 110.749 118.398C110.749 125.962 114.409 131.94 120.265 135.478C115.141 138.406 112.457 142.92 112.457 147.434C112.457 150.728 114.043 154.144 118.435 156.218C113.433 158.17 106.967 162.806 106.967 171.224C106.967 179.886 117.093 185.864 132.465 185.864C151.131 185.864 164.063 178.788 164.063 166.954C164.063 156.706 156.255 152.802 145.397 152.07ZM133.807 100.83C143.445 100.83 150.033 108.882 150.033 120.228C150.033 129.378 144.177 135.844 135.515 135.844C125.999 135.844 119.289 127.914 119.289 116.568C119.289 107.174 125.267 100.83 133.807 100.83ZM135.393 182.692C123.071 182.692 114.287 176.836 114.287 167.808C114.287 162.196 118.069 159.024 120.509 156.95C121.973 157.438 123.681 157.804 125.755 157.926L144.543 159.146C155.279 160 158.329 164.636 158.329 169.882C158.329 177.568 148.203 182.692 135.393 182.692ZM223.636 151.094V115.47C223.636 103.758 217.414 97.292 206.922 97.292C198.504 97.292 192.038 102.05 185.206 111.2V74.112H183.498L167.882 78.504V80.212L171.176 80.334C175.568 80.456 177.398 82.286 177.398 86.556V151.094C177.398 156.584 173.128 157.56 168.736 158.292V160H193.868V158.292C189.476 157.56 185.206 156.584 185.206 151.094V114.128C191.916 106.32 197.406 103.148 203.872 103.148C211.314 103.148 215.828 107.906 215.828 115.958V151.094C215.828 156.584 211.558 157.56 207.166 158.292V160H232.176V158.292C227.906 157.56 223.636 156.584 223.636 151.094ZM267.097 102.538V99.122H248.797V86.556H247.089L234.279 100.83V102.538H240.867V145.97C240.867 156.096 245.991 161.83 254.409 161.83C262.095 161.83 265.877 157.072 267.097 153.778L266.243 153.29C264.657 154.876 262.827 156.706 258.313 156.706C252.091 156.706 248.797 152.68 248.797 145.726V102.538H267.097ZM5.002 272H43.798C61.732 272 72.59 263.704 72.59 250.162C72.59 239.06 63.196 230.886 47.458 229.178C59.658 227.104 66.856 219.784 66.856 209.78C66.856 197.702 56.12 190.504 38.308 190.504H5.002V192.212C12.322 192.578 16.104 193.92 16.104 201.484V260.898C16.104 268.706 12.322 269.926 5.002 270.292V272ZM24.888 227.958V193.92H36.112C49.288 193.92 57.218 199.898 57.218 209.902C57.218 221.248 50.264 227.958 38.674 227.958H24.888ZM35.746 268.584C27.572 268.584 24.888 265.778 24.888 260.654V231.374H38.796C54.046 231.374 62.83 238.694 62.83 250.162C62.83 261.386 54.9 268.584 42.334 268.584H35.746ZM112.532 209.292C105.822 209.292 99.7217 214.782 95.3297 225.762V209.292H93.6217L78.0057 213.684V215.392H81.1777C85.6917 215.636 87.5217 217.466 87.5217 221.736V262.85C87.5217 268.462 83.1297 269.56 78.3717 270.292V272H107.652V270.292C99.5997 269.56 95.3297 268.462 95.3297 262.85V229.3C99.2337 221.126 105.09 216.978 111.068 216.978C113.142 216.978 115.094 217.344 116.802 218.32L117.412 210.39C115.704 209.658 114.118 209.292 112.532 209.292ZM170.777 267.608C166.385 267.486 164.433 265.778 164.433 261.386V231.13C164.433 217.71 156.259 209.292 143.449 209.292C127.223 209.292 116.243 221.858 122.587 234.18L130.395 231.252C126.247 222.346 131.493 212.708 141.375 212.708C150.891 212.708 156.625 219.662 156.625 231.13V235.034L146.133 237.108C127.345 240.646 120.147 246.258 120.147 257.97C120.147 267.364 126.613 273.83 136.007 273.83C145.035 273.83 152.965 267.73 156.625 257.726V273.83H158.333L173.949 269.438V267.73L170.777 267.608ZM156.625 254.554C153.087 262.484 146.621 267.852 139.789 267.852C133.079 267.852 128.443 262.606 128.443 255.652C128.443 247.356 133.933 242.964 146.499 240.524L156.625 238.45V254.554ZM232.361 263.094V227.47C232.361 215.758 226.139 209.292 215.769 209.292C207.107 209.292 200.641 214.294 193.687 223.688V209.292H191.979L176.363 213.684V215.392H179.535C184.049 215.636 185.879 217.466 185.879 221.736V263.094C185.879 268.584 181.609 269.56 177.217 270.292V272H202.227V270.292C197.957 269.56 193.687 268.584 193.687 263.094V226.494C200.641 218.32 206.009 215.148 212.719 215.148C220.039 215.148 224.553 219.906 224.553 227.958V263.094C224.553 268.584 220.283 269.56 216.013 270.292V272H241.023V270.292C236.631 269.56 232.361 268.584 232.361 263.094ZM270.22 273.708C282.054 273.708 290.35 266.266 293.888 254.432L292.424 253.944C287.788 262.118 280.956 266.144 273.514 266.144C259.728 266.144 251.31 253.944 251.31 237.596C251.31 223.2 258.874 212.708 269.976 212.708C278.76 212.708 282.786 220.394 284.128 226.494L292.058 223.688C290.838 216.856 283.03 209.292 271.562 209.292C254.238 209.292 243.136 223.444 243.136 242.476C243.136 260.166 254.238 273.708 270.22 273.708ZM351.421 263.094V227.47C351.421 215.758 345.199 209.292 334.707 209.292C326.289 209.292 319.823 214.05 312.991 223.2V186.112H311.283L295.667 190.504V192.212L298.961 192.334C303.353 192.456 305.183 194.286 305.183 198.556V263.094C305.183 268.584 300.913 269.56 296.521 270.292V272H321.653V270.292C317.261 269.56 312.991 268.584 312.991 263.094V226.128C319.701 218.32 325.191 215.148 331.657 215.148C339.099 215.148 343.613 219.906 343.613 227.958V263.094C343.613 268.584 339.343 269.56 334.951 270.292V272H359.961V270.292C355.691 269.56 351.421 268.584 351.421 263.094ZM411.634 255.652C408.096 261.02 402.606 266.266 393.456 266.266C379.426 266.266 369.91 255.53 370.398 238.816C370.398 237.84 370.52 236.986 370.52 236.01H412.854C412.854 220.516 404.436 209.292 390.406 209.292C373.692 209.292 362.224 222.956 362.224 242.842C362.224 260.532 372.716 273.708 389.186 273.708C400.776 273.708 409.926 266.266 412.976 256.262L411.634 255.652ZM388.698 212.708C397.848 212.708 403.582 222.102 403.826 232.594H371.008C372.96 220.882 379.548 212.708 388.698 212.708ZM443.697 273.708C456.263 273.708 464.925 266.022 464.681 254.92C464.071 233.204 428.813 239.548 428.813 223.2C428.813 217.1 433.937 212.708 441.745 212.708C448.211 212.708 453.945 217.588 456.263 224.664L463.461 221.248C460.777 214.05 452.115 209.292 442.233 209.292C430.033 209.292 421.859 216.124 422.103 226.372C422.469 247.234 457.605 240.402 457.849 258.58C457.849 265.534 452.237 270.292 444.063 270.292C436.499 270.292 429.911 264.68 428.203 256.018L420.273 259.556C423.689 267.974 433.205 273.708 443.697 273.708Z" fill="black"/>
<path d="M13.763 312.184C17.236 312.184 19.743 310.252 20.548 307.216L18.455 306.779C17.88 309.01 16.247 310.298 13.74 310.298C10.474 310.298 8.105 308.067 8.105 303.95C8.105 299.833 10.474 297.579 13.74 297.579C16.247 297.579 17.972 298.936 18.478 301.259L20.548 300.799C19.881 297.694 17.282 295.716 13.763 295.716C9.738 295.716 5.943 298.407 5.943 303.95C5.943 309.493 9.715 312.184 13.763 312.184ZM34.4369 312.184C39.0139 312.184 42.3489 308.734 42.3489 303.95C42.3489 299.166 39.0139 295.716 34.4369 295.716C29.8369 295.716 26.5019 299.166 26.5019 303.95C26.5019 308.734 29.8369 312.184 34.4369 312.184ZM34.4139 310.298C31.0789 310.298 28.6409 307.63 28.6409 303.95C28.6409 300.27 31.0789 297.579 34.4139 297.579C37.7949 297.579 40.2099 300.27 40.2099 303.95C40.2099 307.63 37.7949 310.298 34.4139 310.298ZM49.1221 312H59.1961V310.114H51.2151V295.9H49.1221V312ZM65.3461 312H75.4201V310.114H67.4391V295.9H65.3461V312ZM81.5701 312H91.9661V310.114H83.6631V304.387H90.1951V302.501H83.6631V297.763H91.7131V295.9H81.5701V312ZM105.123 312.184C107.4 312.184 109.47 311.149 110.206 309.516V312H112.115V303.697H104.525V305.514H110.137C110.068 308.343 108.159 310.298 105.146 310.298C101.903 310.298 99.5345 308.044 99.5345 303.95C99.5345 299.856 101.903 297.579 105.169 297.579C107.722 297.579 109.516 298.959 109.976 301.236L112.046 300.799C111.402 297.694 108.757 295.716 105.169 295.716C101.144 295.716 97.3725 298.453 97.3725 303.95C97.3725 309.447 101.121 312.184 105.123 312.184ZM119.319 312H129.715V310.114H121.412V304.387H127.944V302.501H121.412V297.763H129.462V295.9H119.319V312ZM153.395 312.184C157.972 312.184 161.307 308.734 161.307 303.95C161.307 299.166 157.972 295.716 153.395 295.716C148.795 295.716 145.46 299.166 145.46 303.95C145.46 308.734 148.795 312.184 153.395 312.184ZM153.372 310.298C150.037 310.298 147.599 307.63 147.599 303.95C147.599 300.27 150.037 297.579 153.372 297.579C156.753 297.579 159.168 300.27 159.168 303.95C159.168 307.63 156.753 310.298 153.372 310.298ZM168.081 312H170.174V304.571H176.89V302.685H170.174V297.763H178.385V295.9H168.081V312ZM194.801 312H205.197V310.114H196.894V304.387H203.426V302.501H196.894V297.763H204.944V295.9H194.801V312ZM223.008 312H225.193L218.799 295.9H216.89L210.519 312H212.681L214.268 307.906H221.421L223.008 312ZM214.981 306.043L217.856 298.66L220.708 306.043H214.981ZM236.218 312.184C239.737 312.184 242.06 310.39 242.06 307.653C242.06 301.213 232.86 303.605 232.86 299.925C232.86 298.476 234.102 297.579 236.172 297.579C238.196 297.579 239.576 298.683 239.898 300.431L241.807 299.695C241.393 297.303 239.116 295.716 236.172 295.716C232.998 295.716 230.744 297.418 230.744 299.925C230.744 305.629 239.898 303.375 239.898 307.676C239.898 309.286 238.472 310.321 236.264 310.321C234.125 310.321 232.4 308.849 232.078 306.595L230.1 307.239C230.629 310.183 233.113 312.184 236.218 312.184ZM252.166 312H254.259V297.763H259.365V295.9H247.037V297.763H252.166V312ZM265.537 312H275.933V310.114H267.63V304.387H274.162V302.501H267.63V297.763H275.68V295.9H265.537V312ZM295.239 312L290.593 304.502C292.456 303.858 293.583 302.34 293.583 300.362C293.583 297.671 291.582 295.9 288.523 295.9H282.727V312H284.82V304.824H288.385L292.847 312H295.239ZM284.82 297.763H288.293C290.271 297.763 291.444 298.729 291.444 300.362C291.444 301.995 290.271 302.938 288.293 302.938H284.82V297.763ZM301.376 312H303.423V299.235L311.542 312H313.865V295.9H311.818V308.711L303.699 295.9H301.376V312ZM331.062 312H333.109V299.856L338.146 312H339.894L344.908 299.856V312H346.978V295.9H344.448L339.02 308.964L333.592 295.9H331.062V312ZM354.451 312H364.847V310.114H356.544V304.387H363.076V302.501H356.544V297.763H364.594V295.9H354.451V312ZM371.64 312H376.424C380.932 312 384.497 309.125 384.497 303.95C384.497 298.775 380.932 295.9 376.424 295.9H371.64V312ZM373.71 310.114V297.763H376.355C379.46 297.763 382.335 299.557 382.335 303.95C382.335 308.343 379.46 310.114 376.355 310.114H373.71ZM391.256 312H393.349V295.9H391.256V312ZM407.916 312.184C411.389 312.184 413.896 310.252 414.701 307.216L412.608 306.779C412.033 309.01 410.4 310.298 407.893 310.298C404.627 310.298 402.258 308.067 402.258 303.95C402.258 299.833 404.627 297.579 407.893 297.579C410.4 297.579 412.125 298.936 412.631 301.259L414.701 300.799C414.034 297.694 411.435 295.716 407.916 295.716C403.891 295.716 400.096 298.407 400.096 303.95C400.096 309.493 403.868 312.184 407.916 312.184ZM421.391 312H423.484V295.9H421.391V312ZM430.966 312H433.013V299.235L441.132 312H443.455V295.9H441.408V308.711L433.289 295.9H430.966V312ZM450.964 312H461.36V310.114H453.057V304.387H459.589V302.501H453.057V297.763H461.107V295.9H450.964V312Z" fill="black"/>
<path d="M430.747 123.223C425.502 128.515 417.609 131.567 409.276 131.567C393.492 131.567 380.649 120.323 380.649 106.534C380.649 90.1503 390.6 81.5006 409.276 81.5006C429.423 81.5006 437.904 87.0975 437.904 100.479V112.894C415.109 112.741 408.394 107.603 408.394 91.5241V68.4751C408.394 52.3967 415.257 47.2577 437.904 47.1051V56.518C437.904 72.5964 430.306 78.4986 409.276 78.4986C390.404 78.4986 380.649 69.8489 380.649 53.4652C380.649 39.7782 393.492 28.4318 409.276 28.4318C417.462 28.4318 425.502 31.6373 430.747 36.9289L432.806 34.7919C426.972 28.8897 418.345 25.3789 409.276 25.3789C392.021 25.3789 377.708 37.9465 377.708 53.4652C377.708 71.6806 388.835 81.5515 409.276 81.5515C431.776 81.5515 440.845 74.4281 440.845 56.518V44.0522C414.374 43.8996 405.453 49.6491 405.453 68.4751V91.5241C405.453 110.35 414.374 116.1 440.845 115.947V100.479C440.845 85.164 430.894 78.4986 409.276 78.4986C388.982 78.4986 377.708 88.4713 377.708 106.534C377.708 122.002 391.874 134.62 409.276 134.62C418.345 134.62 426.972 131.262 432.806 125.36L430.747 123.223Z" fill="black"/>
<path fill-rule="evenodd" clip-rule="evenodd" d="M377.706 0H440.294C453.939 0 465 11.1157 465 24.8276V135.172C465 148.884 453.939 160 440.294 160H377.706C364.061 160 353 148.884 353 135.172V24.8276C353 11.1157 364.061 0 377.706 0ZM377.706 2.75862C365.577 2.75862 355.745 12.6392 355.745 24.8276V135.172C355.745 147.361 365.577 157.241 377.706 157.241H440.294C452.423 157.241 462.255 147.361 462.255 135.172V24.8276C462.255 12.6392 452.423 2.75862 440.294 2.75862H377.706Z" fill="black"/>
</svg>
