<svg width="202" height="288" viewBox="0 0 202 288" fill="none" xmlns="http://www.w3.org/2000/svg">
<rect x="2" y="2" width="198" height="284" rx="42" fill="#82AF82" stroke="#82AF82" stroke-width="4"/>
<path d="M140.607 223.342C131.054 232.933 116.679 238.467 101.5 238.467C72.75 238.467 49.3571 218.086 49.3571 193.094C49.3571 163.398 67.4821 147.721 101.5 147.721C138.196 147.721 153.643 157.865 153.643 182.119V204.621C112.125 204.345 99.8929 195.03 99.8929 165.888V124.112C99.8929 94.9697 112.393 85.6553 153.643 85.3787V102.44C153.643 131.582 139.804 142.279 101.5 142.279C67.125 142.279 49.3571 126.602 49.3571 96.9064C49.3571 72.0987 72.75 51.5333 101.5 51.5333C116.411 51.5333 131.054 57.3433 140.607 66.9343L144.357 63.061C133.732 52.3633 118.018 46 101.5 46C70.0714 46 44 68.7788 44 96.9064C44 129.922 64.2679 147.813 101.5 147.813C142.482 147.813 159 134.902 159 102.44V79.8454C110.786 79.5687 94.5357 89.9898 94.5357 124.112V165.888C94.5357 200.01 110.786 210.431 159 210.155V182.119C159 154.361 140.875 142.279 101.5 142.279C64.5357 142.279 44 160.355 44 193.094C44 221.129 69.8036 244 101.5 244C118.018 244 133.732 237.913 144.357 227.216L140.607 223.342Z" fill="white"/>
</svg>
