<svg width="204" height="290" viewBox="0 0 204 290" fill="none" xmlns="http://www.w3.org/2000/svg">
<path d="M141.607 223.342C132.054 232.933 117.679 238.467 102.5 238.467C73.75 238.467 50.3571 218.086 50.3571 193.094C50.3571 163.398 68.4821 147.721 102.5 147.721C139.196 147.721 154.643 157.865 154.643 182.119V204.621C113.125 204.345 100.893 195.03 100.893 165.888V124.112C100.893 94.9697 113.393 85.6553 154.643 85.3787V102.44C154.643 131.582 140.804 142.279 102.5 142.279C68.125 142.279 50.3571 126.602 50.3571 96.9064C50.3571 72.0987 73.75 51.5333 102.5 51.5333C117.411 51.5333 132.054 57.3433 141.607 66.9343L145.357 63.061C134.732 52.3633 119.018 46 102.5 46C71.0714 46 45 68.7788 45 96.9064C45 129.922 65.2679 147.813 102.5 147.813C143.482 147.813 160 134.902 160 102.44V79.8454C111.786 79.5687 95.5357 89.9898 95.5357 124.112V165.888C95.5357 200.01 111.786 210.431 160 210.155V182.119C160 154.361 141.875 142.279 102.5 142.279C65.5357 142.279 45 160.355 45 193.094C45 221.129 70.8036 244 102.5 244C119.018 244 134.732 237.913 145.357 227.216L141.607 223.342Z" fill="black"/>
<rect x="2.5" y="2.5" width="199" height="285" rx="42.5" stroke="black" stroke-width="5"/>
</svg>
